# xmcd CD database file
#
# Track frame offsets:
#	150
#	11703
#	29709
#	45069
#	62750
#	72519
#	83973
#	96315
#	109965
#	124226
#	141453
#	149151
#
# Disc length: 2177 seconds
#
# Revision: 0
# Processed by: cddbd v1.5.2PL0 Copyright (c) Steve Scherf et al.
# Submitted via: CDex 1.70beta2
#
DISCID=bb087f0c
DTITLE=Maynard Ferguson - Boy With Lots Of ... BRASS
DYEAR=1957
DGENRE=Jazz
TTITLE0=Give Me The Simple Life
TTITLE1=My Funny Valentine
TTITLE2=The Lamp Is Low
TTITLE3=Imagination
TTITLE4=The Song Is You
TTITLE5=Jeepers Creepers
TTITLE6=Love Me Or Leave Me
TTITLE7=A Foggy Day
TTITLE8=Easy To Love
TTITLE9=Moonlight In Vermont
TTITLE10=I Hadn't Anyone Till You
TTITLE11=I Never Knew
EXTD=YEAR: 1957
EXTT0=
EXTT1=
EXTT2=
EXTT3=
EXTT4=
EXTT5=
EXTT6=
EXTT7=
EXTT8=
EXTT9=
EXTT10=
EXTT11=
PLAYORDER=
